# xmcd
#
# Track frame offsets:
#	150
#	19138
#	46226
#	70754
#	86738
#	101860
#	117750
#	139326
#	153792
#	171833
#
# Disc length: 2519 seconds
#
# Revision: 1
# Processed by: cddbd v1.5.2PL0 Copyright (c) Steve Scherf et al.
# Submitted via: audiograbber 1.83.01
#
DISCID=8009d50a
DTITLE=Various Artist - 80's Groove [CD2]
DYEAR=2006
DGENRE=80's Groove
TTITLE0=KC and The Sunshine Band - Give It Up
TTITLE1=Lionnie Liston Smith - Expansions
TTITLE2=Odyssey - Going Back To My Roots
TTITLE3=Gladys Knight and The Pips - Bourgie', Bourgie'
TTITLE4=Champaign - How 'Bout Us
TTITLE5=The Miracles - Spy For Brotherhood
TTITLE6=The Pointer Sisters - Automatic
TTITLE7=The Main Ingredient - Spinning Around (I Must Be Falling In Love)
TTITLE8=Michael Wycoff - Looking Up To You
TTITLE9=Beatmasters Feat. The Cookie Crew - Rok Da House
EXTD=
EXTT0=
EXTT1=
EXTT2=
EXTT3=
EXTT4=
EXTT5=
EXTT6=
EXTT7=
EXTT8=
EXTT9=
PLAYORDER=
